<?xml version="1.0" encoding="utf-8"?>
<!-- Generator: Adobe Illustrator 25.4.1, SVG Export Plug-In . SVG Version: 6.00 Build 0)  -->
<svg version="1.1" id="Layer_1" xmlns="http://www.w3.org/2000/svg" xmlns:xlink="http://www.w3.org/1999/xlink" x="0px" y="0px"
	 viewBox="0 0 24 24" style="enable-background:new 0 0 24 24;" xml:space="preserve">
<style type="text/css">
	.st0{fill:#FFFFFF;}
</style>
<g>
	<g>
		<path class="st0" d="M3.3,16v-3h1.8v-2H3.3V8h1.8V6H3.3V4C1.7,4,0.4,4.9,0.4,6v12c0,1.1,1.3,2,2.9,2v-2h1.8v-2H3.3z"/>
		<path class="st0" d="M20.7,4v2h-1.8v2h1.8v3h-1.8v2h1.8v3h-1.8v2h1.8v2c1.6,0,2.9-0.9,2.9-2V6C23.6,4.9,22.3,4,20.7,4z"/>
	</g>
	<g>
		<polygon class="st0" points="13.1,14 13.5,14 13.3,13.3 		"/>
		<path class="st0" d="M11.6,13.2c0,0-0.1-0.1-0.2-0.1c-0.1,0-0.1,0-0.2,0H11v1.3h0.2c0.1,0,0.1,0,0.2,0c0.1,0,0.1-0.1,0.2-0.1
			s0.1-0.1,0.1-0.2c0-0.1,0-0.2,0-0.3c0-0.1,0-0.2,0-0.3C11.6,13.3,11.6,13.3,11.6,13.2z"/>
		<polygon class="st0" points="9.1,10.5 9.6,10.5 9.4,9.8 		"/>
		<path class="st0" d="M17.8,4H6.2H5.1v2v2v3v2v3v2v2h1.1h11.6h1.1v-2v-2v-3v-2V8V6V4H17.8z M15.6,9.2h1.7v0.4h-0.6v1.7h-0.6V9.6
			h-0.6V9.2z M14.9,10.6c0,0-0.1-0.1-0.2-0.1l-0.2-0.1c-0.1,0-0.2-0.1-0.2-0.1c-0.1,0-0.1-0.1-0.2-0.1c0,0-0.1-0.1-0.1-0.2
			s0-0.1,0-0.2c0-0.1,0-0.2,0.1-0.3c0-0.1,0.1-0.2,0.2-0.2c0.1-0.1,0.2-0.1,0.3-0.1s0.2,0,0.3,0c0.1,0,0.3,0,0.4,0.1
			c0.1,0,0.3,0.1,0.4,0.2l-0.3,0.4c-0.1-0.1-0.2-0.1-0.3-0.2c-0.1,0-0.2-0.1-0.2-0.1c-0.1,0-0.1,0-0.2,0c-0.1,0-0.1,0.1-0.1,0.1
			c0,0.1,0,0.1,0.1,0.1c0,0,0.1,0.1,0.2,0.1l0.2,0.1c0.1,0,0.2,0.1,0.3,0.1c0.1,0,0.1,0.1,0.2,0.1c0,0.1,0.1,0.1,0.1,0.2
			c0,0.1,0,0.1,0,0.2c0,0.1,0,0.2-0.1,0.3c0,0.1-0.1,0.2-0.2,0.2c-0.1,0.1-0.2,0.1-0.3,0.1s-0.2,0-0.3,0c-0.1,0-0.1,0-0.2,0
			s-0.1,0-0.2-0.1s-0.1-0.1-0.2-0.1c-0.1,0-0.1-0.1-0.2-0.1l0.3-0.4c0.1,0.1,0.2,0.1,0.3,0.2c0.1,0,0.2,0.1,0.3,0.1
			c0.1,0,0.2,0,0.2,0s0.1-0.1,0.1-0.1C15,10.7,14.9,10.7,14.9,10.6z M12.1,9.2h1.4v0.4h-0.9V10h0.8v0.4h-0.8v0.5h0.9v0.4h-1.5V9.2z
			 M10.2,9.2h1.7v0.4h-0.6v1.7h-0.6V9.6h-0.6V9.2z M8.1,14.1c0,0.1,0,0.3-0.1,0.4s-0.1,0.2-0.2,0.2c-0.1,0.1-0.2,0.1-0.3,0.1
			c-0.1,0-0.2,0-0.3,0c-0.1,0-0.2,0-0.3,0c-0.1,0-0.2-0.1-0.3-0.1c-0.1-0.1-0.1-0.1-0.2-0.2S6.4,14.2,6.4,14v-1.4H7V14
			c0,0.1,0,0.2,0.1,0.3c0.1,0.1,0.1,0.1,0.2,0.1c0.1,0,0.2,0,0.2-0.1s0.1-0.1,0.1-0.3v-1.4h0.5V14.1z M8.3,11.3H6.9V9.2h0.6v1.7h0.9
			V11.3z M9.9,13.9C9.8,14,9.6,14,9.4,14H9v0.8H8.5v-2.1h0.9c0.1,0,0.3,0,0.4,0.1c0.1,0,0.2,0.1,0.2,0.1c0.1,0.1,0.1,0.1,0.1,0.2
			c0,0.1,0,0.2,0,0.3C10.1,13.6,10.1,13.7,9.9,13.9z M9.8,11.3l-0.1-0.4H9l-0.1,0.4H8.3l0.8-2.1h0.6l0.8,2.1H9.8z M12.2,14.1
			c0,0.1-0.1,0.2-0.2,0.3c-0.1,0.1-0.2,0.2-0.3,0.2c-0.1,0.1-0.3,0.1-0.4,0.1h-0.9v-2.1h0.9c0.2,0,0.3,0,0.4,0.1
			c0.1,0,0.2,0.1,0.3,0.2c0.1,0.1,0.1,0.2,0.2,0.3c0,0.1,0.1,0.3,0.1,0.4C12.3,13.9,12.2,14,12.2,14.1z M13.8,14.8l-0.1-0.4H13
			l-0.1,0.4h-0.6l0.8-2.1h0.6l0.8,2.1H13.8z M15.9,13.1h-0.6v1.7h-0.6v-1.7h-0.6v-0.4h1.7V13.1z M17.6,14.8h-1.5v-2.1h1.4v0.4h-0.9
			v0.4h0.8v0.4h-0.8v0.5h0.9V14.8z"/>
		<path class="st0" d="M9.5,13.2C9.5,13.1,9.5,13.1,9.5,13.2c-0.1-0.1-0.1-0.1-0.2-0.1H9v0.6h0.3c0,0,0.1,0,0.1,0c0,0,0.1,0,0.1-0.1
			s0-0.1,0-0.1c0,0,0-0.1,0-0.1C9.6,13.3,9.6,13.3,9.5,13.2C9.6,13.2,9.6,13.2,9.5,13.2z"/>
	</g>
</g>
</svg>
