<?xml version="1.0" encoding="utf-8"?>
<!-- Generator: Adobe Illustrator 25.4.1, SVG Export Plug-In . SVG Version: 6.00 Build 0)  -->
<svg version="1.1" id="Layer_1" xmlns="http://www.w3.org/2000/svg" xmlns:xlink="http://www.w3.org/1999/xlink" x="0px" y="0px"
	 viewBox="0 0 50 50" style="enable-background:new 0 0 50 50;" xml:space="preserve">
<style type="text/css">
	.st0{fill:#FFFFFF;}
</style>
<path class="st0" d="M41.63,10.77C37.64,7.57,31.35,7.02,31.08,7c-0.42-0.04-0.82,0.2-0.99,0.59c-0.02,0.02-0.15,0.34-0.3,0.83
	c2.63,0.45,5.87,1.34,8.79,3.16c0.47,0.29,0.61,0.91,0.32,1.38c-0.19,0.31-0.52,0.48-0.85,0.48c-0.18,0-0.36-0.05-0.53-0.15
	C32.49,10.16,26.21,10,25,10s-7.5,0.16-12.52,3.28c-0.47,0.29-1.09,0.15-1.38-0.32c-0.29-0.47-0.15-1.09,0.32-1.38
	c2.93-1.81,6.16-2.71,8.79-3.15c-0.15-0.5-0.29-0.81-0.3-0.84C19.74,7.2,19.34,6.96,18.92,7c-0.27,0.02-6.57,0.56-10.6,3.81
	C6.21,12.76,2,24.15,2,34c0,0.18,0.05,0.34,0.13,0.5c2.91,5.11,10.84,6.45,12.65,6.5c0.01,0,0.02,0,0.03,0
	c0.32,0,0.62-0.15,0.81-0.41l1.83-2.52c-4.93-1.27-7.45-3.44-7.6-3.57c-0.41-0.36-0.45-1-0.09-1.41c0.36-0.41,1-0.45,1.41-0.09
	C11.23,33.06,15.88,37,25,37c9.14,0,13.78-3.95,13.83-3.99c0.41-0.36,1.04-0.32,1.41,0.09c0.36,0.41,0.32,1.04-0.09,1.41
	c-0.14,0.13-2.66,2.29-7.6,3.57l1.83,2.52c0.19,0.26,0.49,0.41,0.81,0.41c0.01,0,0.02,0,0.03,0c1.81-0.06,9.74-1.39,12.65-6.5
	C47.95,34.34,48,34.18,48,34C48,24.15,43.79,12.76,41.63,10.77z M18.5,30c-1.93,0-3.5-1.79-3.5-4s1.57-4,3.5-4s3.5,1.79,3.5,4
	S20.43,30,18.5,30z M31.5,30c-1.93,0-3.5-1.79-3.5-4s1.57-4,3.5-4s3.5,1.79,3.5,4S33.43,30,31.5,30z"/>
</svg>
