<?xml version="1.0" encoding="utf-8"?>
<!-- Generator: Adobe Illustrator 25.4.1, SVG Export Plug-In . SVG Version: 6.00 Build 0)  -->
<svg version="1.1" id="Layer_1" xmlns="http://www.w3.org/2000/svg" xmlns:xlink="http://www.w3.org/1999/xlink" x="0px" y="0px"
	 viewBox="0 0 50 50" style="enable-background:new 0 0 50 50;" xml:space="preserve">
<style type="text/css">
	.st0{fill:#FFFFFF;}
</style>
<path class="st0" d="M46.14,6.55c-0.75-0.64-1.93-0.73-3.15-0.24h0C41.71,6.83,6.73,21.83,5.3,22.44c-0.26,0.09-2.52,0.93-2.29,2.81
	c0.21,1.69,2.03,2.4,2.25,2.48l8.89,3.05c0.59,1.96,2.76,9.21,3.25,10.76c0.3,0.97,0.79,2.23,1.65,2.49
	c0.75,0.29,1.5,0.03,1.98-0.35l5.44-5.04l8.78,6.85l0.21,0.13c0.6,0.26,1.17,0.4,1.71,0.4c0.42,0,0.83-0.08,1.21-0.24
	c1.31-0.54,1.84-1.79,1.9-1.94l6.56-34.08C47.23,7.93,46.67,7.01,46.14,6.55z M22,32l-3,8l-3-10l23-17L22,32z"/>
</svg>
