<?xml version="1.0" encoding="utf-8"?>
<!-- Generator: Adobe Illustrator 25.4.1, SVG Export Plug-In . SVG Version: 6.00 Build 0)  -->
<svg version="1.0" id="Layer_1" xmlns="http://www.w3.org/2000/svg" xmlns:xlink="http://www.w3.org/1999/xlink" x="0px" y="0px"
	 viewBox="0 0 844.9 513.6" style="enable-background:new 0 0 844.9 513.6;" xml:space="preserve">
<style type="text/css">
	.st0{opacity:0.6;fill:#B2B9C7;enable-background:new    ;}
	.st1{fill:#3D89F5;}
	.st2{fill:#1656B9;}
	.st3{fill:#85B5F8;}
	.st4{fill:none;}
</style>
<path d="M524.2,231.3c-0.2-3.6,2.5-6.7,6.1-6.9c3.6-0.2,6.7,2.5,6.9,6.1s-2.5,6.7-6.1,6.9c-0.1,0-0.3,0-0.4,0
	C527.2,237.5,524.3,234.8,524.2,231.3z M524.7,242.9h11.9v43h-11.9V242.9z M206.3,228.6h-23V286h24.6c12.9,0,19.8-6.7,19.8-15.9
	c0.3-7.3-5.3-13.6-12.6-13.9v-0.6c6.1-0.9,10.6-6.2,10.4-12.3C225.4,234.7,219,228.6,206.3,228.6L206.3,228.6z M213.1,245.2
	c0,4.5-3.9,7.3-8.6,7.3l-9.2,0.1v-14.3h9.4C210.1,238.3,213.1,240.7,213.1,245.2L213.1,245.2z M214.9,268.8c0,4.3-2.8,7.1-9.6,7.1
	h-10v-15.2h10c4.6-0.7,8.8,2.5,9.5,7.1c0,0,0,0,0,0C214.9,268.1,214.9,268.5,214.9,268.8z M233.5,286h12.1l-0.2-57.4h-11.9V286z
	 M251.9,264.6c0-13.3,8.1-22.2,21.2-22.2c13,0,21.2,8.9,21.2,22.2s-8.1,22.2-21.2,22.2S251.9,277.9,251.9,264.6z M282.1,264.6
	c0-7.5-3.1-13-9-13c-5.9,0-9.1,5.5-9.1,13s3.1,13,9.1,13C279.1,277.6,282.1,272.1,282.1,264.6L282.1,264.6z M319.9,242.4
	c-13.1,0-21.1,9-21.1,22.2s7.9,22.2,21.1,22.2c11.3,0,18.5-6.7,19.1-16.6h-11.3c-0.3,4.1-3.7,7.3-7.8,7.2c-5.6,0-9.2-4.9-9.2-12.9
	s3.6-12.8,9.2-12.8c4.1-0.1,7.5,3.1,7.8,7.2H339C338.6,248.9,331.1,242.4,319.9,242.4L319.9,242.4z M345.3,228.6h12v30.6h0.6
	l13.8-16.3h13.7l-16,18.6l16.8,24.4h-14l-11.7-17.4l-3.2,3.7V286h-11.9V228.6z M407.3,242.4c-13.1,0-21.1,9-21.1,22.2
	s7.9,22.2,21.2,22.2c11.4,0,18.6-6.7,19.1-16.6h-11.2c-0.3,4.1-3.7,7.3-7.8,7.2c-5.6,0-9.2-4.9-9.2-12.9s3.6-12.8,9.2-12.8
	c4.1-0.1,7.6,3.1,7.8,7.2h11.2C426.1,248.9,418.5,242.4,407.3,242.4L407.3,242.4z M444.6,286h-11.9v-57.4h11.6v22h0.5
	c2-5.3,7.2-8.6,12.9-8.2c8.9,0,14.9,6.1,14.9,16.2V286h-12v-25.3c0.6-4-2.2-7.7-6.2-8.3c-0.5-0.1-1-0.1-1.5-0.1
	c-4.4-0.2-8.2,3.2-8.4,7.6c0,0.4,0,0.8,0,1.2L444.6,286z M494.6,260.7c-8.5,0.8-16.2,3.7-16.2,13.3c0,8.5,6.1,12.8,14.3,12.8
	c5.2,0.4,10.1-2.3,12.6-6.8h0.3v6h11.3v-29.1c0-10.3-8.7-14.6-18.3-14.6c-10.3,0-17.1,4.9-18.8,12.8l11,0.9c1.1-3.2,4.3-5.2,7.6-4.8
	c4.1,0,6.4,2.1,6.4,5.6C504.9,259.6,502,259.9,494.6,260.7L494.6,260.7z M505,265.8v4.8c-0.3,4.6-4.2,8-8.8,7.8c-0.1,0-0.1,0-0.2,0
	c-3.7,0-6.3-1.7-6.3-5s2.8-5,7-5.6C499.6,267.5,502.4,266.8,505,265.8z M544.4,286h12.1l-0.2-24.9c-0.5-4.3,2.6-8.2,6.9-8.8
	c0.4,0,0.8-0.1,1.2,0c4.1-0.2,7.5,2.9,7.7,7c0,0.5,0,0.9-0.1,1.4V286h12v-27.4c0-10-5.9-16.2-14.9-16.2c-5.6-0.4-10.9,2.9-13,8.2
	h-0.5v-7.6h-11.4V286z"/>
<path class="st0" d="M715.5,242.9h-11.4v43h12v-25.8c-0.3-3,1.4-5.9,4.1-7.2c0.9-0.4,1.9-0.7,2.9-0.7c2.8-0.1,5.3,1.6,6.2,4.3
	c0.3,0.9,0.4,1.8,0.3,2.7V286h11.6v-26.3c-0.4-3.7,2.3-7,6-7.4c0,0,0,0,0,0c0.3,0,0.7,0,1,0c3.5-0.2,6.5,2.6,6.7,6.1
	c0,0.4,0,0.7,0,1.1V286h12v-28.7c0.2-7.7-5.8-14.1-13.5-14.3c-5.4-0.1-10.3,2.8-12.8,7.6h-0.7c-1.5-5.1-6.4-8.5-11.7-8.2
	c-5.4-0.3-10.3,3.1-12,8.2h-0.5L715.5,242.9z M631.9,242.4c-13.1,0-21.1,9-21.1,22.2s7.9,22.2,21.3,22.2c11.4,0,18.6-6.7,19.1-16.6
	H640c-0.3,4.1-3.7,7.3-7.8,7.2c-5.5,0-9.2-4.9-9.2-12.9s3.6-12.8,9.2-12.8c4.1-0.1,7.6,3.1,7.8,7.2h11
	C650.7,248.9,643.1,242.4,631.9,242.4z M594.1,275.2c-2.6,2.6-2.6,6.9,0,9.5c2.6,2.6,6.9,2.6,9.5,0s2.6-6.9,0-9.5
	c-1.3-1.3-3-2-4.8-2C597.1,273.3,595.4,274,594.1,275.2z M655.6,264.6c0-13.3,8.1-22.2,21.2-22.2s21.1,8.9,21.1,22.2
	s-8.1,22.2-21.1,22.2S655.6,277.9,655.6,264.6L655.6,264.6z M685.8,264.6c0-7.5-3.1-13-9-13s-9.1,5.5-9.1,13s3.1,13,9.1,13
	S685.8,272.1,685.8,264.6L685.8,264.6z"/>
<path class="st1" d="M84.7,246.8l-3.5,3.5c-4,3.8-4.1,10.1-0.3,14.1c0,0,0,0,0,0c0.1,0.1,0.2,0.2,0.3,0.3l28.1,28.4
	c0.7,0.7,1.4,1.3,2.3,1.7v-34.5L84.7,246.8z"/>
<path class="st2" d="M148.1,246.8l3.5,3.5c3.9,3.8,4.1,10.1,0.3,14.1c-0.1,0.1-0.2,0.2-0.3,0.3L123.4,293c-0.7,0.7-1.4,1.3-2.3,1.7
	v-34.4L148.1,246.8z"/>
<path class="st3" d="M141.3,239.6L123.7,222c-3.9-3.9-10.2-4-14.1-0.2c-0.1,0.1-0.2,0.1-0.2,0.2l-17.7,17.6l24.7,12.3L141.3,239.6z"
	/>
<rect x="63.9" y="188.7" class="st4" width="717.1" height="136.2"/>
</svg>
