<?xml version="1.0" encoding="utf-8"?>
<!-- Generator: Adobe Illustrator 25.0.1, SVG Export Plug-In . SVG Version: 6.00 Build 0)  -->
<svg version="1.0" id="katman_1" xmlns="http://www.w3.org/2000/svg" xmlns:xlink="http://www.w3.org/1999/xlink" x="0px" y="0px"
	 viewBox="0 0 2759.3 1841.8" style="enable-background:new 0 0 2759.3 1841.8;" xml:space="preserve">
<style type="text/css">
	.st0{fill:#FFFFFF;}
	.st1{fill:url(#SVGID_1_);}
	.st2{fill:url(#SVGID_2_);}
	.st3{fill:url(#SVGID_3_);}
	.st4{fill:url(#SVGID_4_);}
	.st5{fill:#6C6D6D;}
</style>
<path class="st0" d="M129.8,492.9h2499.8v856H129.8V492.9z"/>
<radialGradient id="SVGID_1_" cx="159.9691" cy="344.7112" r="4.53" gradientTransform="matrix(-94.6964 0 0 94.6964 15716.208 -31944.4062)" gradientUnits="userSpaceOnUse">
	<stop  offset="0" style="stop-color:#00A85F"/>
	<stop  offset="1" style="stop-color:#00904A"/>
</radialGradient>
<path class="st1" d="M497.1,1061.2c-6.1,11.8-6.4,25.7-1,37.8L421.6,975c-6.6-12.6-6.6-27.7,0-40.4l120.5-200.7
	c8.1-11.9,21.3-19.4,35.7-20.2h105c12.8,0,18.1,8.7,11.4,20.2l-75,124.8c-0.4,0.7-1.1,1.2-1.5,1.8L497.1,1061.2z"/>
<radialGradient id="SVGID_2_" cx="160.1291" cy="347.5612" r="3.36" gradientTransform="matrix(-94.6964 0 0 94.6964 15716.208 -31944.4062)" gradientUnits="userSpaceOnUse">
	<stop  offset="0" style="stop-color:#FFCC4D"/>
	<stop  offset="1" style="stop-color:#F4C136"/>
</radialGradient>
<path class="st2" d="M682.8,1196h-105c-14.4-0.8-27.6-8.3-35.7-20.2l-45.9-76.5c-5.5-12.1-5.1-26,1-37.8l76.5-126.6
	c-6.6,12.6-6.6,27.7,0,40.3l74.6,124.1c0.4,0.9,0.6,1.8,1,2.6l45.7,76.2C699.6,1188,694.9,1196,682.8,1196z"/>
<radialGradient id="SVGID_3_" cx="986.4273" cy="1077.5088" r="49.462" gradientTransform="matrix(8.6798 0 0 -8.6798 -8291.4951 10449.959)" gradientUnits="userSpaceOnUse">
	<stop  offset="0" style="stop-color:#567EBE"/>
	<stop  offset="1" style="stop-color:#547DBE"/>
</radialGradient>
<path class="st3" d="M374.8,704.9c6.1-11.8,6.5-25.8,1-37.9l74.6,124.2c6.6,12.6,6.6,27.7,0,40.3l-120.9,200.6
	c-7.9,11.7-20.7,19.2-34.7,20.2H189.2c-12.9,0-18.1-9.1-11.5-20.2l75.1-124.8c0-0.6,1-1.1,1.4-1.7L374.8,704.9z"/>
<radialGradient id="SVGID_4_" cx="988.0983" cy="1108.5328" r="36.706" gradientTransform="matrix(8.6798 0 0 -8.6798 -8291.4951 10449.959)" gradientUnits="userSpaceOnUse">
	<stop  offset="0" style="stop-color:#DF4A3E"/>
	<stop  offset="1" style="stop-color:#CD372C"/>
</radialGradient>
<path class="st4" d="M189.2,570.4h104.9c14.3,0.9,27.3,8.4,35.2,20.2l46,76.4c5.5,12.1,5.2,26.1-1,37.9l-76.1,126.5
	c6.6-12.6,6.6-27.7,0-40.3L223.8,667c-0.3-0.9-0.6-1.7-1-2.5L177,588.4C172.3,578.4,177.2,570.4,189.2,570.4z"/>
<g>
	<path class="st5" d="M1004.9,670.5c0.9,18.4-5.8,36.3-18.5,49.6c-14.2,14.9-34.1,22.9-54.7,22c-42.3,0.4-77-33.6-77.3-75.9
		c0-0.6,0-1.2,0-1.7c-0.8-42.4,33-77.3,75.3-78.1c0.7,0,1.3,0,2,0c10.6,0,21.1,1.9,31,5.8c9.1,3.5,17.3,9.2,23.9,16.5l-13.7,14.4
		c-4.7-5.7-10.6-10.1-17.4-13c-7.4-3.2-15.3-4.8-23.3-4.7c-15.5-0.3-30.3,5.8-41.1,16.8c-11.1,11.3-17.1,26.7-16.7,42.6
		c-0.5,15.9,5.6,31.3,16.7,42.6c10.8,11.1,25.7,17.1,41.1,16.8c13.4,0.5,26.6-4,37-12.5c10.1-8.6,16.4-21,17.4-34.3h-54.8v-18.2
		h72.1C1004.5,663,1004.9,666.7,1004.9,670.5z M1018.8,687.9c-0.5-14.4,4.9-28.4,14.8-38.8c9.8-10.2,23.5-15.8,37.7-15.5
		c14.1-0.4,27.7,5.2,37.4,15.5c10,10.4,15.4,24.4,14.9,38.8c0.6,14.6-4.8,28.8-14.9,39.3c-9.7,10.2-23.3,15.8-37.4,15.4
		c-14.2,0.4-27.8-5.2-37.7-15.4C1023.5,716.7,1018.2,702.5,1018.8,687.9z M1037.9,687.9c-0.4,9.8,3,19.4,9.6,26.6
		c12.4,13.1,33.1,13.6,46.1,1.2c0.4-0.4,0.8-0.8,1.2-1.2c6.6-7.3,10.1-16.8,9.6-26.6c0.3-9.6-3.2-18.9-9.6-26
		c-12.1-13.1-32.6-13.8-45.6-1.7c-0.6,0.5-1.1,1.1-1.7,1.7C1041,669,1037.6,678.3,1037.9,687.9z M1136,687.9
		c-0.5-14.4,4.8-28.4,14.8-38.8c9.9-10.3,23.7-15.9,37.9-15.5c14-0.3,27.4,5.3,37.1,15.5c10.1,10.4,15.5,24.4,15,38.8
		c0.6,14.6-4.8,28.9-15,39.3c-9.7,10-23.2,15.4-37.1,14.9c-14.2,0.6-28-4.8-37.9-14.9C1140.7,716.7,1135.4,702.5,1136,687.9z
		 M1155.1,687.9c-0.4,9.8,3,19.3,9.5,26.6c12.5,13.1,33.2,13.6,46.3,1.1c0.4-0.4,0.8-0.7,1.1-1.1c6.5-7.3,10-16.9,9.5-26.6
		c0.3-9.6-3.1-18.9-9.5-26c-12.2-13.1-32.7-13.8-45.8-1.6c-0.6,0.5-1.1,1.1-1.6,1.6C1158.3,669,1154.8,678.3,1155.1,687.9z
		 M1304.2,787c-5.4,0.1-10.8-0.7-16.1-2.2c-4.8-1.3-9.4-3.4-13.6-6.1c-3.9-2.6-7.5-5.7-10.5-9.4c-2.9-3.6-5.1-7.7-6.6-12.1l18.1-7.5
		c2,5.8,5.8,10.8,10.8,14.3c5.2,3.7,11.5,5.5,17.9,5.4c9.1,0.5,17.9-2.9,24.3-9.3c6.2-7.2,9.3-16.6,8.7-26v-9.5h-0.9
		c-3.7,5.4-8.8,9.8-14.7,12.8c-6.2,3.1-13.1,4.8-20.1,4.7c-13.1,0.1-25.7-5.6-34.3-15.5c-9.4-10.7-14.5-24.5-14.1-38.7
		c-0.4-14.3,4.7-28.2,14.2-38.8c8.6-9.9,21.1-15.5,34.2-15.5c7-0.1,13.8,1.5,20.1,4.7c5.9,2.9,11,7.4,14.7,12.8h0.8v-14.1h18.3v97.5
		c0.8,14.2-4.3,28.1-14,38.5C1331.4,782.6,1318,787.7,1304.2,787L1304.2,787z M1304.8,724.7c8.7,0.2,17.1-3.5,22.8-10.2
		c6.4-7.3,9.8-16.9,9.4-26.6c0.3-9.6-3.1-18.8-9.4-26c-5.7-6.7-14.2-10.5-23-10.3c-8.8-0.1-17.3,3.6-23.1,10.3
		c-6.3,7.2-9.6,16.5-9.4,26c-0.3,9.6,3,18.9,9.4,26C1287.2,720.9,1295.8,724.8,1304.8,724.7z M1398.7,590.1v148.8h-19V590.1H1398.7z
		 M1467.4,742.2c-13.9,0.5-27.3-4.9-37-14.9c-9.8-10.5-15-24.5-14.5-38.9c-0.6-14.4,4.5-28.5,14.1-39.2
		c9.3-10.3,22.6-15.9,36.5-15.5c13.6-0.6,26.7,4.7,36,14.7c9.5,11.5,14.4,26.2,13.5,41.1v2.1h-80c-0.1,9.1,3.5,17.8,10,24.1
		c12.8,12.4,33.1,12.1,45.5-0.7c2.4-2.5,4.4-5.4,5.9-8.5l17.4,8.7c-4.3,8.3-10.9,15.3-19,20.1
		C1487.1,740.2,1477.3,742.6,1467.4,742.2L1467.4,742.2z M1436.9,675.7h58.4c-0.4-6.7-3.6-13-8.7-17.4c-5.8-4.9-13.3-7.4-20.9-6.9
		c-6.8-0.2-13.4,2.2-18.6,6.6C1441.9,662.6,1438.3,668.8,1436.9,675.7L1436.9,675.7z M1583.8,738.9V590.1h45.6
		c20.3-0.9,40,6.5,54.7,20.6c14.1,14.3,21.6,33.8,20.7,53.8c0.9,20.1-6.6,39.7-20.7,54.1c-14.7,14-34.4,21.4-54.7,20.5L1583.8,738.9
		z M1602.9,608.7v111.9h26.5c15.1,0.8,29.8-4.5,40.9-14.8c10.5-11.1,15.9-26,15-41.2c0.9-15.3-4.5-30.3-15-41.4
		c-11-10.4-25.8-15.8-40.9-15L1602.9,608.7z M1767.6,742.2c-13.9,0.6-27.4-4.9-37-14.9c-9.8-10.5-15.1-24.5-14.6-38.9
		c-0.6-14.4,4.5-28.5,14.1-39.2c19.4-20.2,51.5-20.8,71.7-1.4c0.2,0.2,0.4,0.4,0.5,0.5c9.5,11.5,14.3,26.2,13.4,41.1v2.1h-80.2
		c-0.1,9.1,3.5,17.8,10,24.1c12.8,12.4,33.3,12.1,45.7-0.7c2.4-2.5,4.4-5.3,5.9-8.5l17.4,8.7c-4.3,8.3-10.9,15.3-19,20.1
		C1787,740.1,1777.3,742.5,1767.6,742.2L1767.6,742.2z M1737,675.7h58.4c-0.5-6.7-3.6-12.9-8.7-17.4c-5.8-4.9-13.3-7.4-20.8-6.9
		c-6.8-0.2-13.5,2.2-18.7,6.6C1742,662.6,1738.4,668.8,1737,675.7L1737,675.7z M1881.4,738.9h-19.1l-41.2-101.8h20.8l29.9,79
		l30.4-79h20.4L1881.4,738.9z M1978.6,742.2c-13.8,0.5-27.1-5-36.6-14.9c-9.8-10.5-15.1-24.5-14.6-38.9
		c-0.6-14.4,4.5-28.5,14.1-39.2c19.4-20.2,51.5-20.8,71.7-1.4c0.2,0.2,0.4,0.4,0.5,0.5c9.5,11.5,14.3,26.2,13.4,41.1v2.1h-80
		c-0.1,9.1,3.5,17.8,10,24.1c12.8,12.4,33.3,12.1,45.7-0.7c2.4-2.5,4.4-5.3,5.9-8.5l17.4,8.7c-4.3,8.3-10.9,15.3-19,20.1
		C1998.4,740.1,1988.5,742.6,1978.6,742.2z M1948,675.7h58.4c-0.5-6.7-3.6-12.9-8.7-17.4c-5.8-4.9-13.3-7.4-20.8-6.9
		c-6.8-0.2-13.5,2.2-18.7,6.6c-5.2,4.7-8.6,10.9-9.9,17.7H1948z M2064.5,590.1v148.8h-19.1V590.1H2064.5z M2081.8,687.9
		c-0.5-14.4,4.9-28.4,14.8-38.8c9.8-10.2,23.4-15.8,37.6-15.5c14.1-0.4,27.7,5.2,37.4,15.5c10.2,10.3,15.7,24.3,15.4,38.8
		c0.5,14.7-5,28.9-15.4,39.3c-9.7,10.2-23.3,15.8-37.4,15.4c-14.1,0.4-27.8-5.2-37.6-15.4C2086.5,716.7,2081.2,702.5,2081.8,687.9z
		 M2100.9,687.9c-0.4,9.8,3,19.3,9.5,26.6c12.5,13.1,33.2,13.6,46.3,1.1c0.4-0.4,0.8-0.7,1.1-1.1c6.6-7.3,10-16.9,9.5-26.6
		c0.3-9.6-3.1-18.9-9.5-26c-12.2-13.1-32.7-13.8-45.8-1.6c-0.6,0.5-1.1,1.1-1.6,1.6C2104,669,2100.6,678.3,2100.9,687.9z
		 M2256.8,742.2c-7.1,0.1-14.2-1.5-20.5-4.8c-5.8-2.8-10.8-7.2-14.2-12.7h-0.4l0.9,14.1v44.9h-19.1V637.1h18.2v14.1h0.9
		c3.5-5.5,8.4-9.9,14.2-12.7c18.4-9.3,40.8-5,54.3,10.6c9.5,10.5,14.6,24.3,14.3,38.5c0.4,14.3-4.7,28.2-14.3,38.8
		C2282.6,736.6,2270,742.4,2256.8,742.2z M2253.6,724.8c8.9,0.1,17.3-3.7,23.1-10.4c6.3-7.2,9.7-16.5,9.4-26
		c0.3-9.6-3.1-18.8-9.4-26c-11.5-12.8-31.2-13.8-44-2.3c-0.8,0.7-1.6,1.5-2.3,2.3c-6.2,7.2-9.4,16.5-9.2,26
		c-0.3,9.6,3,18.9,9.1,26.2C2236.2,721.2,2244.7,724.9,2253.6,724.8L2253.6,724.8z M2369.2,742.2c-13.9,0.5-27.3-4.9-37-14.9
		c-9.8-10.5-15.1-24.5-14.6-38.9c-0.6-14.4,4.5-28.5,14.1-39.2c19.4-20.2,51.5-20.8,71.7-1.4c0.2,0.2,0.4,0.4,0.5,0.5
		c9.5,11.5,14.4,26.2,13.5,41.1v2.1h-80c-0.1,9.1,3.5,17.8,10,24.1c6.1,6,14.4,9.2,22.9,9.1c12.3-0.1,23.4-7.2,28.6-18.3l17.4,8.7
		c-4.3,8.4-11,15.4-19.1,20.1C2388.7,740.1,2379,742.5,2369.2,742.2L2369.2,742.2z M2338.6,675.7h58.4c-0.4-6.7-3.6-13-8.7-17.4
		c-5.8-4.9-13.3-7.4-20.9-6.9c-6.8-0.2-13.4,2.2-18.6,6.6C2343.6,662.6,2340,668.8,2338.6,675.7L2338.6,675.7z M2454.8,738.9h-19.2
		V637.1h18.3v16.6h0.9c2.3-5.8,6.5-10.7,11.9-13.8c5.3-3.6,11.4-5.6,17.8-5.7c4.8-0.1,9.6,0.7,14.1,2.5l-5.8,18.5
		c-3.6-1.2-7.4-1.7-11.2-1.5c-7.2,0-14.1,3.2-18.8,8.7c-5.2,5.5-8.1,12.8-8,20.3L2454.8,738.9z M2586.2,710.6
		c0,8.9-4.3,17.3-11.6,22.5c-16.8,11.7-39.1,12.2-56.3,1.1c-7.6-5.1-13.4-12.5-16.6-21.1l17.4-7.3c2.2,5.7,6,10.7,10.9,14.2
		c4.5,3.3,10,5.1,15.6,5.1c5.1,0.1,10.2-1.3,14.6-4c3.6-1.8,5.9-5.3,6.2-9.3c0-6.5-4.9-11.3-14.9-14.4l-17.4-4.3
		c-19.8-5-29.7-14.5-29.7-28.6c-0.2-8.9,4.1-17.3,11.4-22.4c8.5-6,18.6-9,29-8.7c8.5,0.1,16.9,2.5,24.1,7c6.9,3.9,12.3,10,15.3,17.4
		l-17.4,7.1c-2-4.3-5.3-7.8-9.5-10.1c-4.5-2.5-9.5-3.7-14.7-3.6c-4.8-0.1-9.4,1.2-13.5,3.7c-3.5,1.8-5.7,5.2-5.9,9.1
		c0,5.8,5.5,10,16.4,12.5l15.4,3.9C2575.7,685.1,2586.2,695.2,2586.2,710.6L2586.2,710.6z M1038.8,883.5v37.1H901.4v95.5h123.9v36.2
		H901.4v95.5h137.4v37.1H862.6V883.5H1038.8z M1178.3,1080.5l73.8,104.9h-45.5l-51-76.3l-50.2,76.3h-45.5l72.9-104.9L1061.6,979
		h43.8l51,72.9l48.4-72.9h45.6L1178.3,1080.5z M1386.5,1192.2c-14.4,0.2-28.7-3.1-41.6-9.7c-11.8-5.9-21.8-14.9-28.9-26h-1.6
		l1.6,28.6v91.4h-38.8V979h37.1v28.6h1.6c7.1-11.1,17.1-20.1,28.9-26c37.6-18.9,83.2-9.7,110.6,22.3c39,44.8,39,111.5,0,156.2
		C1438.5,1180.7,1413.2,1192.5,1386.5,1192.2L1386.5,1192.2z M1380.2,1156.8c17.9,0.2,35.1-7.5,46.8-21.1c13-14.7,19.8-33.9,19-53.6
		c0.7-19.6-6.1-38.7-19-53.5c-11.7-13.6-28.8-21.3-46.8-21.1c-18.1-0.4-35.4,7.4-47.2,21.1c-12.6,14.9-19.2,34-18.5,53.5
		c-0.8,19.7,5.8,38.9,18.5,54C1344.9,1149.6,1362.2,1157.2,1380.2,1156.8z M1612.9,1192.2c-28.4,0.8-55.7-10.5-75.1-31.2
		c-19.9-21.3-30.5-49.7-29.5-78.8c-0.8-28.8,9.5-56.7,28.7-78.1c39.5-40.9,104.8-42,145.7-2.5c0.2,0.2,0.5,0.5,0.7,0.7
		c18.1,19.8,27.2,47.5,27.2,83.2v4.3h-162.3c-0.2,18.4,7.1,36,20.2,48.9c12.3,12.2,29,18.8,46.3,18.6c24.7,0,44.1-12.4,58.2-37.1
		l34.7,17.4c-8.8,17-22.2,31.1-38.6,40.9C1652,1188.1,1632.6,1192.9,1612.9,1192.2L1612.9,1192.2z M1550.9,1057.1h118.5
		c-0.9-13.7-7.1-26.5-17.4-35.7c-11.8-9.8-27-14.9-42.4-14.1c-13.8-0.3-27.2,4.5-37.8,13.5C1561.1,1030.2,1553.7,1043,1550.9,1057.1
		L1550.9,1057.1z M1746,979h37.1v33.7h1.6c11.6-26.4,35.3-39.6,71.3-39.6l8,0.8v40.5l-17.4-1.7c-16.4-0.6-32.4,5.4-44.4,16.7
		c-11.6,11-17.9,26.4-17.4,42.4v113.8h-38.8L1746,979z M1988,1188.8c-15.5,0.5-30.5-5.1-41.9-15.6c-11.7-11.4-18-27.1-17.4-43.4
		v-115.4h-36.3V979h36.3v-63.3h38.8V979h50.6v35.4h-50.6v102.8c0,13.8,2.6,23.2,8,28c4.9,4.7,11.4,7.4,18.1,7.4c2.9,0,5.8-0.4,8.7-1
		c2.8-0.6,5.6-1.5,8.2-2.7l12.2,34.7C2011.6,1187.3,1999.9,1189,1988,1188.8z M2217.7,1128.2c0,18.1-8.8,35.1-23.6,45.5
		c-17,12.8-38,19.4-59.3,18.6c-19.5,0.3-38.7-5.3-54.9-16.2c-15.4-10.4-27.1-25.4-33.7-42.8l34.7-14.8c4.4,11.6,12.1,21.6,22.1,28.9
		c9.2,6.7,20.3,10.3,31.7,10.3c10.9,0.4,21.7-2.4,31-8.1c7.2-3.6,11.9-10.9,12.4-18.9c0-13.2-10.1-22.9-30.4-29.1l-35.4-8.7
		c-40.2-10.2-60.2-29.6-60.2-58.2c-0.4-18,8.2-35,23-45.3c32.6-21.3,74.2-22.8,108.3-4.1c13.9,7.8,24.8,20,31,34.7l-34.7,14.4
		c-3.9-8.7-10.5-15.9-18.9-20.4c-9.1-5-19.3-7.5-29.7-7.4c-9.6-0.2-19,2.5-27.2,7.6c-7.3,3.4-12.1,10.5-12.6,18.5
		c0,11.6,11.1,20,33.3,25.3l31.2,8C2197.2,1076.3,2217.8,1096.9,2217.7,1128.2L2217.7,1128.2z"/>
</g>
</svg>
