<?xml version="1.0" encoding="utf-8"?>
<!-- Generator: Adobe Illustrator 25.4.1, SVG Export Plug-In . SVG Version: 6.00 Build 0)  -->
<svg version="1.1" id="Layer_1" xmlns="http://www.w3.org/2000/svg" xmlns:xlink="http://www.w3.org/1999/xlink" x="0px" y="0px"
	 viewBox="0 0 24 24" style="enable-background:new 0 0 24 24;" xml:space="preserve">
<style type="text/css">
	.st0{fill:#FFFFFF;}
</style>
<g>
	<path class="st0" d="M8,4h8v2h2V4c1.1,0,2,0.9,2,2v12c0,1.1-0.9,2-2,2v-2h-2v2H8v-2H6v2c-1.1,0-2-0.9-2-2V6c0-1.1,0.9-2,2-2v2h2V4z
		 M10,15l4.5-3L10,9V15z M18,16v-3h-2v3H18z M18,11V8h-2v3H18z M8,16v-3H6v3H8z M8,11V8H6v3H8z"/>
</g>
</svg>
